# xmcd
#
# Track frame offsets:
#  150
#  10832
#  23005
#  34095
#  46702
#  58282
#  72332
#  90657
#  102350
#  116437
#  128935
#  141305
#  155332
#  169560
#
# Disc length: 2412 seconds
#
# Revision: 0
# Processed by: cddbd v1.4PL0 Copyright (c) Steve Scherf et al.
# Submitted via: AltoMP3_Maker 3.0
#
DISCID=b4096a0e
DTITLE=The Barnshakers - String - O - Rama
DYEAR=1900
DGENRE=
TTITLE0=Heartbreakers' School
TTITLE1=Loosin' The Game of Love
TTITLE2=Hey Baby
TTITLE3=Sioux Squaw
TTITLE4=She's No Longer There
TTITLE5=Heart Trouble
TTITLE6=Coming Home Soon
TTITLE7=Old Sweat, Stale Beer and Cheap Perfume
TTITLE8=Take Your Hands Off My Baby
TTITLE9=You're Gone
TTITLE10=Gypsy
TTITLE11=Be Good, Behave or Be Gone
TTITLE12=Hard Workin' Daddy
TTITLE13=Blue Smoke
EXTD=
EXTT0=
EXTT1=
EXTT2=
EXTT3=
EXTT4=
EXTT5=
EXTT6=
EXTT7=
EXTT8=
EXTT9=
EXTT10=
EXTT11=
EXTT12=
EXTT13=
PLAYORDER=
